<svg id="visual" viewBox="0 0 900 600" width="900" height="600" xmlns="http://www.w3.org/2000/svg" xmlns:xlink="http://www.w3.org/1999/xlink" version="1.1"><rect x="0" y="0" width="900" height="600" fill="#F1F7ED"></rect><path d="M0 83L25 81.5C50 80 100 77 150 77.8C200 78.7 250 83.3 300 82.5C350 81.7 400 75.3 450 74.8C500 74.3 550 79.7 600 84C650 88.3 700 91.7 750 87C800 82.3 850 69.7 875 63.3L900 57L900 0L875 0C850 0 800 0 750 0C700 0 650 0 600 0C550 0 500 0 450 0C400 0 350 0 300 0C250 0 200 0 150 0C100 0 50 0 25 0L0 0Z" fill="#09548d"></path><path d="M0 52L25 55C50 58 100 64 150 67.8C200 71.7 250 73.3 300 71.5C350 69.7 400 64.3 450 63.3C500 62.3 550 65.7 600 64.8C650 64 700 59 750 59.3C800 59.7 850 65.3 875 68.2L900 71L900 0L875 0C850 0 800 0 750 0C700 0 650 0 600 0C550 0 500 0 450 0C400 0 350 0 300 0C250 0 200 0 150 0C100 0 50 0 25 0L0 0Z" fill="#1e6ca4"></path><path d="M0 47L25 44.5C50 42 100 37 150 35C200 33 250 34 300 33.2C350 32.3 400 29.7 450 29.8C500 30 550 33 600 35C650 37 700 38 750 37.8C800 37.7 850 36.3 875 35.7L900 35L900 0L875 0C850 0 800 0 750 0C700 0 650 0 600 0C550 0 500 0 450 0C400 0 350 0 300 0C250 0 200 0 150 0C100 0 50 0 25 0L0 0Z" fill="#3184ba"></path><path d="M0 13L25 15.2C50 17.3 100 21.7 150 25C200 28.3 250 30.7 300 29.2C350 27.7 400 22.3 450 22.5C500 22.7 550 28.3 600 27.3C650 26.3 700 18.7 750 17.8C800 17 850 23 875 26L900 29L900 0L875 0C850 0 800 0 750 0C700 0 650 0 600 0C550 0 500 0 450 0C400 0 350 0 300 0C250 0 200 0 150 0C100 0 50 0 25 0L0 0Z" fill="#449dd1"></path></svg>